<?xml version="1.0" encoding="utf-8"?>
<!-- Generator: Adobe Illustrator 24.1.0, SVG Export Plug-In . SVG Version: 6.00 Build 0)  -->
<svg version="1.1" id="Camada_1" xmlns="http://www.w3.org/2000/svg" xmlns:xlink="http://www.w3.org/1999/xlink" x="0px" y="0px"
	 viewBox="0 0 32 24" style="enable-background:new 0 0 32 24;" xml:space="preserve">
<style type="text/css">
	.st0{fill:#065A7E;}
</style>
<desc>Created with Sketch.</desc>
<g id="Web">
	<g id="Dashboard" transform="translate(-250.000000, -20.000000)">
		<g id="Group-13">
			<g id="Group-12" transform="translate(250.000000, 20.000000)">
				<g id="logo">
					<path id="Path" class="st0" d="M14.8,3.7c0-1.6-0.7-3.5-4-3.5c-1.6,0-2.2,0.4-3,1c-0.9,0.6-2,1.4-4.4,1.4C2,2.5,0.9,2.3,0,1.9
						c1,2.4,3.4,5.4,9.5,5.4C12.7,7.2,14.8,5.4,14.8,3.7z"/>
					<path id="Path_1_" class="st0" d="M22,16.7c-3.1,0-5-1-6-1.8c-1,0.8-2.8,1.8-6,1.8c-4.9,0-6.6-6.4-7-8.4C2.7,8.1,2.4,8,2,7.8
						l0.4,4.1c0.8,6.9,9.3,11.5,13.5,11.8c3.9-0.4,12.4-4.9,13.3-11.8l0.4-4.1c-0.3,0.2-0.6,0.4-1,0.5C28.5,10.3,26.8,16.7,22,16.7z
						"/>
					<path id="Path_2_" class="st0" d="M24.3,1.1c-0.8-0.5-1.5-1-3-1c-3.3,0-4,1.9-4,3.5c0,1.7,2.1,3.5,5.2,3.5c6.1,0,8.5-3,9.5-5.4
						c-0.9,0.4-2,0.6-3.4,0.6C26.3,2.5,25.2,1.8,24.3,1.1z"/>
				</g>
			</g>
		</g>
	</g>
</g>
</svg>
